<!DOCTYPE svg PUBLIC "-//W3C//DTD SVG 1.1//EN" "http://www.w3.org/Graphics/SVG/1.1/DTD/svg11.dtd">
<!-- Uploaded to: SVG Repo, www.svgrepo.com, Transformed by: SVG Repo Mixer Tools -->
<svg fill="#1dc39a" height="800px" width="800px" version="1.1" id="Layer_1" xmlns="http://www.w3.org/2000/svg" xmlns:xlink="http://www.w3.org/1999/xlink" viewBox="0 0 490.10 490.10" xml:space="preserve" stroke="#1dc39a" stroke-width="0.004901000000000001">
<g id="SVGRepo_bgCarrier" stroke-width="0"/>
<g id="SVGRepo_tracerCarrier" stroke-linecap="round" stroke-linejoin="round"/>
<g id="SVGRepo_iconCarrier"> <g> <g> <path d="M423.85,74h-70.7l-5.4-28.1c-2.1-9.4-10.4-16.7-19.8-16.7h-58.4v-8.3c0-11.5-9.4-20.9-20.9-20.9 c-11.5,0-19.8,8.3-20.9,19.8v9.4h-59.4c-9.4,0-17.7,7.3-19.8,16.7l-5.2,28.1h-77.1c-11.5,0-20.9,9.4-20.9,20.9v374.3 c0,11.5,9.4,20.9,20.9,20.9h356.6c11.5,0,20.9-9.4,21.9-20.9V94.9C444.65,83.4,435.35,74,423.85,74z M311.25,68.8l10.4,54.2h-146 l10.4-54.2H311.25z M402.95,449.3H86.05V115.7h49.5l-4.7,25c-3.2,17.4,13.6,24,19.8,24h196c11.5,0,20.9-9.4,19.8-19.8 c0-2.1-5.4-29.2-5.4-29.2h41.9V449.3z"/> <path d="M322.75,234.6h-157.5c-11.5,0-20.9,9.4-20.9,20.9s9.4,20.9,20.9,20.9h158.5c11.5,0,19.8-9.4,19.8-20.9 S334.15,234.6,322.75,234.6z"/> <path d="M322.75,348.2h-157.5c-11.5,0-20.9,9.4-20.9,20.9s9.4,20.9,20.9,20.9h158.5c11.5,0,19.8-9.4,19.8-20.9 S334.15,348.2,322.75,348.2z"/> </g> <g> <path d="M423.85,74h-70.7l-5.4-28.1c-2.1-9.4-10.4-16.7-19.8-16.7h-58.4v-8.3c0-11.5-9.4-20.9-20.9-20.9 c-11.5,0-19.8,8.3-20.9,19.8v9.4h-59.4c-9.4,0-17.7,7.3-19.8,16.7l-5.2,28.1h-77.1c-11.5,0-20.9,9.4-20.9,20.9v374.3 c0,11.5,9.4,20.9,20.9,20.9h356.6c11.5,0,20.9-9.4,21.9-20.9V94.9C444.65,83.4,435.35,74,423.85,74z M311.25,68.8l10.4,54.2h-146 l10.4-54.2H311.25z M402.95,449.3H86.05V115.7h49.5l-4.7,25c-1,6.3,0,12.5,4.2,16.7s9.4,7.3,15.6,7.3h196 c11.5,0,20.9-9.4,19.8-19.8c0-2.1-5.4-29.2-5.4-29.2h41.9V449.3z"/> <path d="M322.75,234.6h-157.5c-11.5,0-20.9,9.4-20.9,20.9s9.4,20.9,20.9,20.9h158.5c11.5,0,19.8-9.4,19.8-20.9 S334.15,234.6,322.75,234.6z"/> <path d="M322.75,348.2h-157.5c-11.5,0-20.9,9.4-20.9,20.9s9.4,20.9,20.9,20.9h158.5c11.5,0,19.8-9.4,19.8-20.9 S334.15,348.2,322.75,348.2z"/> </g> </g> </g>
</svg>